<svg xmlns="http://www.w3.org/2000/svg" viewBox="0 0 1500 1200">
  <defs>
    <style>.cls-1,.cls-10,.cls-11,.cls-2,.cls-3,.cls-4,.cls-5,.cls-6,.cls-7,.cls-8,.cls-9{fill:none;}.cls-1{stroke:#ddf1fc;stroke-width:30px;}.cls-1,.cls-10,.cls-11,.cls-12,.cls-2,.cls-3,.cls-4,.cls-5,.cls-6,.cls-7,.cls-8,.cls-9{stroke-miterlimit:10;}.cls-2{stroke:#009dd7;}.cls-10,.cls-11,.cls-2,.cls-3,.cls-4,.cls-5,.cls-6,.cls-7,.cls-8,.cls-9{stroke-linecap:round;stroke-width:5px;}.cls-3{stroke:#ee1822;}.cls-4{stroke:#f26f1f;}.cls-5{stroke:#22b573;}.cls-6{stroke:#7c1f31;}.cls-7{stroke:#78d6cd;}.cls-8{stroke:#007a61;}.cls-9{stroke:#bbadd2;}.cls-10{stroke:#e77dad;}.cls-11{stroke:#4e2c8d;}.cls-12{fill:#fff;stroke:#000;}.cls-13{font-size:10px;}.cls-13,.cls-14{font-family:FZLTHK--GBK1-0, FZLanTingHei-R-GBK;}.cls-14{font-size:11px;}</style>
  </defs>
  <title>ningbo-subway</title>
  <g id="river">
    <polyline class="cls-1" points="110.63 1239.63 608.5 741.75 608.5 567.25 870.25 305.5 1109 305.5 1442.25 -27.75"/>

    <polyline class="cls-1" points="0 422.5 450.5 422.5 611.5 583.5"/>

    <polyline class="cls-1" points="452.5 428.5 543.5 337.5 618.5 412.5"/>
</g>
  <g id="line">
    <polyline id="_1" data-name="1" class="cls-2" points="110.5 616.5 1009 616.5 1316.5 616.5 1316.5 325 1474.5 325"/>

    <polyline id="_2" data-name="2" class="cls-3" points="1253.25 259.25 1177.5 183.5 925 183.5 748 360.5 665.5 360.5 665.5 457 534.5 588 534.5 680 480 734.5 358.5 734.5 358.5 906 182.5 906"/>

    <polyline id="_3" data-name="3" class="cls-4" points="483.75 27.75 622 166 622 286 796.5 461 796.5 801 711 886.5 711 1039"/>

    <polyline id="_4" data-name="4" class="cls-5" points="1151.5 955 862.5 955 862.5 720 495.5 720 458.5 683 458.5 289 168 289 51.75 172.75"/>

    <polyline id="_6" data-name="6" class="cls-6" points="128.5 895 128.5 655 334 655 527 461.5 666 461.5 708.5 504 862.5 504 949.5 417 1095.5 417 1252.92 259.58 1458.5 259.58 1458.5 325"/>

    <path id="_7" data-name="7" class="cls-7" d="M1065.5,1060.5V619l-69-69H661L521.5,410.75l-56.37-56.37V210L292.81,37.69"/>

    <polyline id="_8" data-name="8" class="cls-8" points="215.5 205 215.5 494 415.5 494 415.5 733 528.5 846 1233.5 846"/>

    <polyline class="cls-4" points="707.5 1038 558.5 1038 435.25 1161.25"/>

    <polyline class="cls-9" points="627 1059 627 1002.5 574.5 950 574.5 835 647 762.5 647 598 845.75 399.25 734.5 288 734.5 172.75 621.63 59.88 516.5 59.88"/>

    <polyline class="cls-10" points="64.5 185.5 166 185.5 166 523.5 239 596.5 239 696 352.5 696 379.5 669 1005.5 669 1005.5 900 1059 953.5 1059 1060"/>

    <polyline class="cls-11" points="555.5 286 514.5 286 461.5 339 305.5 339 305.5 859 425.5 859 476 909.5 950 909.5 950 415.5 820.5 286 555.5 286"/>
</g>
  <g id="station-ex">
    <rect class="cls-12" x="526.5" y="612.2" width="16" height="9" rx="4.5" ry="4.5"/>

    <rect class="cls-12" x="527.5" y="665" width="16" height="9" rx="4.5" ry="4.5"/>

    <rect class="cls-12" x="788.5" y="612.2" width="16" height="9" rx="4.5" ry="4.5"/>

    <rect class="cls-12" x="788.5" y="715" width="16" height="9" rx="4.5" ry="4.5"/>

    <rect class="cls-12" x="789" y="545.5" width="16" height="9" rx="4.5" ry="4.5"/>

    <rect class="cls-12" x="942.33" y="545.5" width="16" height="9" rx="4.5" ry="4.5"/>

    <rect class="cls-12" x="789" y="499" width="16" height="9" rx="4.5" ry="4.5"/>

    <rect class="cls-12" x="783" y="452" width="16" height="9" rx="4.5" ry="4.5"/>

    <rect class="cls-12" x="734" y="499" width="16" height="9" rx="4.5" ry="4.5"/>

    <rect class="cls-12" x="742.5" y="841.35" width="16" height="9" rx="4.5" ry="4.5"/>

    <rect class="cls-12" x="567" y="841.35" width="16" height="9" rx="4.5" ry="4.5"/>

    <rect class="cls-12" x="639" y="715" width="16" height="9" rx="4.5" ry="4.5"/>

    <rect class="cls-12" x="639" y="612.2" width="16" height="9" rx="4.5" ry="4.5"/>

    <rect class="cls-12" x="639" y="665" width="16" height="9" rx="4.5" ry="4.5"/>

    <rect class="cls-12" x="686" y="545.5" width="16" height="9" rx="4.5" ry="4.5"/>

    <rect class="cls-12" x="854.37" y="841.35" width="16" height="9" rx="4.5" ry="4.5"/>

    <rect class="cls-12" x="704" y="906" width="16" height="9" rx="4.5" ry="4.5"/>

    <rect class="cls-12" x="704" y="1034" width="16" height="9" rx="4.5" ry="4.5"/>

    <rect class="cls-12" x="618" y="1034" width="16" height="9" rx="4.5" ry="4.5"/>

    <rect class="cls-12" x="942.33" y="841.35" width="16" height="9" rx="4.5" ry="4.5"/>

    <rect class="cls-12" x="998" y="841.35" width="16" height="9" rx="4.5" ry="4.5"/>

    <rect class="cls-12" x="854.37" y="906" width="16" height="9" rx="4.5" ry="4.5"/>

    <rect class="cls-12" x="1053" y="951" width="22" height="9" rx="4.5" ry="4.5"/>

    <rect class="cls-12" x="1052.5" y="1036.5" width="22" height="9" rx="4.5" ry="4.5"/>

    <rect class="cls-12" x="1057.25" y="841" width="16" height="9" rx="4.5" ry="4.5"/>

    <rect class="cls-12" x="351" y="855" width="16" height="9" rx="4.5" ry="4.5"/>

    <rect class="cls-12" x="407.5" y="730" width="16" height="9" rx="4.5" ry="4.5"/>

    <rect class="cls-12" x="407.62" y="665" width="16" height="9" rx="4.5" ry="4.5"/>

    <rect class="cls-12" x="297.5" y="651" width="16" height="9" rx="4.5" ry="4.5"/>

    <rect class="cls-12" x="297.5" y="691" width="16" height="9" rx="4.5" ry="4.5"/>

    <rect class="cls-12" x="297.14" y="612.2" width="16" height="9" rx="4.5" ry="4.5"/>

    <rect class="cls-12" x="232" y="612.2" width="16" height="9" rx="4.5" ry="4.5"/>

    <rect class="cls-12" x="231.5" y="651" width="16" height="9" rx="4.5" ry="4.5"/>

    <rect class="cls-12" x="297.14" y="489" width="16" height="9" rx="4.5" ry="4.5"/>

    <rect class="cls-12" x="452" y="334.33" width="20" height="9" rx="4.5" ry="4.5"/>

    <rect class="cls-12" x="614" y="281.92" width="16" height="9" rx="4.5" ry="4.5"/>

    <rect class="cls-12" x="509" y="57" width="16" height="9" rx="4.5" ry="4.5"/>

    <rect class="cls-12" x="159" y="284" width="16" height="9" rx="4.5" ry="4.5"/>

    <rect class="cls-12" x="207.25" y="284" width="16" height="9" rx="4.5" ry="4.5"/>

    <rect class="cls-12" x="57" y="182" width="16" height="9" rx="4.5" ry="4.5"/>

    <rect class="cls-12" x="688" y="356" width="16" height="9" rx="4.5" ry="4.5"/>

    <rect class="cls-12" x="813.5" y="281.92" width="16" height="9" rx="4.5" ry="4.5"/>

    <rect class="cls-12" x="770" y="328" width="16" height="9" rx="4.5" ry="4.5"/>

    <rect class="cls-12" x="726.5" y="281.92" width="16" height="9" rx="4.5" ry="4.5"/>

    <rect class="cls-12" x="1244" y="255" width="16" height="9" rx="4.5" ry="4.5"/>

    <rect class="cls-12" x="1450" y="321" width="16" height="9" rx="4.5" ry="4.5"/>

    <rect class="cls-12" x="1057.25" y="612.2" width="16" height="9" rx="4.5" ry="4.5"/>

    <rect class="cls-12" x="942.33" y="612.2" width="16" height="9" rx="4.5" ry="4.5"/>

    <rect class="cls-12" x="942.33" y="665" width="16" height="9" rx="4.5" ry="4.5"/>

    <rect class="cls-12" x="942.33" y="413" width="16" height="9" rx="4.5" ry="4.5"/>

    <rect class="cls-12" x="656" y="457" width="16" height="9" rx="4.5" ry="4.5"/>

    <rect class="cls-12" x="564.5" y="456.5" width="16" height="9" rx="4.5" ry="4.5"/>

    <rect class="cls-12" x="608.5" y="501.5" width="16" height="9" rx="4.5" ry="4.5"/>

    <rect class="cls-12" x="450.5" y="612.2" width="16" height="9" rx="4.5" ry="4.5"/>

    <rect class="cls-12" x="407.62" y="612.2" width="16" height="9" rx="4.5" ry="4.5"/>

    <rect class="cls-12" x="364" y="612.2" width="16" height="9" rx="4.5" ry="4.5"/>

    <rect class="cls-12" x="487.5" y="715" width="16" height="9" rx="4.5" ry="4.5"/>

    <rect class="cls-12" x="450.5" y="525" width="16" height="9" rx="4.5" ry="4.5"/>

    <rect class="cls-12" x="407.62" y="568.5" width="16" height="9" rx="4.5" ry="4.5"/>
</g>
  <g id="station">
    <circle class="cls-12" cx="574" cy="616.5" r="4.5"/>

    <circle class="cls-12" cx="736" cy="616.5" r="4.5"/>

    <circle class="cls-12" cx="639" cy="482.5" r="4.5"/>

    <circle class="cls-12" cx="665" cy="400.5" r="4.5"/>

    <circle class="cls-12" cx="748" cy="360.5" r="4.5"/>

    <circle class="cls-12" cx="857" cy="251.5" r="4.5"/>

    <circle class="cls-12" cx="902" cy="207.5" r="4.5"/>

    <circle class="cls-12" cx="977" cy="183.5" r="4.5"/>

    <circle class="cls-12" cx="1039" cy="183.5" r="4.5"/>

    <circle class="cls-12" cx="1099" cy="183.5" r="4.5"/>

    <circle class="cls-12" cx="1156" cy="183.5" r="4.5"/>

    <circle class="cls-12" cx="842" cy="616.5" r="4.5"/>

    <circle class="cls-12" cx="842" cy="668.5" r="4.5"/>

    <circle class="cls-12" cx="842" cy="550" r="4.5"/>

    <circle class="cls-12" cx="904" cy="550" r="4.5"/>

    <circle class="cls-12" cx="893" cy="616.5" r="4.5"/>

    <circle class="cls-12" cx="1001" cy="616.5" r="4.5"/>

    <circle class="cls-12" cx="950" cy="482.5" r="4.5"/>

    <circle class="cls-12" cx="896" cy="361.5" r="4.5"/>

    <circle class="cls-12" cx="1004" cy="416.5" r="4.5"/>

    <circle class="cls-12" cx="885" cy="482.5" r="4.5"/>

    <circle class="cls-12" cx="916" cy="451.5" r="4.5"/>

    <circle class="cls-12" cx="1069" cy="416.5" r="4.5"/>

    <circle class="cls-12" cx="1130.5" cy="383" r="4.5"/>

    <circle class="cls-12" cx="1169" cy="344.5" r="4.5"/>

    <circle class="cls-12" cx="777" cy="286.42" r="4.5"/>

    <circle class="cls-12" cx="678" cy="286.42" r="4.5"/>

    <circle class="cls-12" cx="622" cy="247.5" r="4.5"/>

    <circle class="cls-12" cx="622" cy="213.5" r="4.5"/>

    <circle class="cls-12" cx="621" cy="178.5" r="4.5"/>

    <circle class="cls-12" cx="609" cy="152.5" r="4.5"/>

    <circle class="cls-12" cx="683" cy="122.5" r="4.5"/>

    <circle class="cls-12" cx="580" cy="125.5" r="4.5"/>

    <circle class="cls-12" cx="550.5" cy="95" r="4.5"/>

    <circle class="cls-12" cx="494" cy="38.5" r="4.5"/>

    <circle class="cls-12" cx="306" cy="50.5" r="4.5"/>

    <circle class="cls-12" cx="331" cy="77.5" r="4.5"/>

    <circle class="cls-12" cx="363" cy="109.5" r="4.5"/>

    <circle class="cls-12" cx="391" cy="136.5" r="4.5"/>

    <circle class="cls-12" cx="417" cy="161.5" r="4.5"/>

    <circle class="cls-12" cx="445" cy="190.5" r="4.5"/>

    <circle class="cls-12" cx="465" cy="226.5" r="4.5"/>

    <circle class="cls-12" cx="465" cy="256.5" r="4.5"/>

    <circle class="cls-12" cx="567" cy="286.42" r="4.5"/>

    <circle class="cls-12" cx="413" cy="288.5" r="4.5"/>

    <circle class="cls-12" cx="348" cy="288.5" r="4.5"/>

    <circle class="cls-12" cx="281" cy="288.5" r="4.5"/>

    <circle class="cls-12" cx="215.25" cy="224.5" r="4.5"/>

    <circle class="cls-12" cx="215.25" cy="370.5" r="4.5"/>

    <circle class="cls-12" cx="215.25" cy="466.5" r="4.5"/>

    <circle class="cls-12" cx="166" cy="370.5" r="4.5"/>

    <circle class="cls-12" cx="352" cy="494.5" r="4.5"/>

    <circle class="cls-12" cx="336" cy="338.83" r="4.5"/>

    <circle class="cls-12" cx="396" cy="338.83" r="4.5"/>

    <circle class="cls-12" cx="123" cy="245.5" r="4.5"/>

    <circle class="cls-12" cx="93" cy="214.5" r="4.5"/>

    <circle class="cls-12" cx="1125" cy="616.5" r="4.5"/>

    <circle class="cls-12" cx="1202" cy="616.5" r="4.5"/>

    <circle class="cls-12" cx="1274" cy="616.5" r="4.5"/>

    <circle class="cls-12" cx="1316" cy="558.5" r="4.5"/>

    <circle class="cls-12" cx="1316" cy="493.83" r="4.5"/>

    <circle class="cls-12" cx="1316" cy="429.17" r="4.5"/>

    <circle class="cls-12" cx="1316" cy="364.5" r="4.5"/>

    <circle class="cls-12" cx="1293" cy="259.5" r="4.5"/>

    <circle class="cls-12" cx="1208" cy="304.5" r="4.5"/>

    <circle class="cls-12" cx="1331.75" cy="259.5" r="4.5"/>

    <circle class="cls-12" cx="1409.25" cy="259.5" r="4.5"/>

    <circle class="cls-12" cx="1370.5" cy="259.5" r="4.5"/>

    <circle class="cls-12" cx="1448" cy="259.5" r="4.5"/>

    <circle class="cls-12" cx="1358" cy="325.5" r="4.5"/>

    <circle class="cls-12" cx="1406" cy="325.5" r="4.5"/>

    <circle class="cls-12" cx="496" cy="616.5" r="4.5"/>

    <circle class="cls-12" cx="468" cy="669.5" r="4.5"/>

    <circle class="cls-12" cx="459" cy="475.5" r="4.5"/>

    <circle class="cls-12" cx="335" cy="616.5" r="4.5"/>

    <circle class="cls-12" cx="129" cy="682.5" r="4.5"/>

    <circle class="cls-12" cx="184" cy="616.5" r="4.5"/>

    <circle class="cls-12" cx="132" cy="616.5" r="4.5"/>

    <circle class="cls-12" cx="458" cy="650.5" r="4.5"/>

    <circle class="cls-12" cx="705" cy="719.5" r="4.5"/>

    <circle class="cls-12" cx="797" cy="766.5" r="4.5"/>

    <circle class="cls-12" cx="862.37" cy="742.5" r="4.5"/>

    <circle class="cls-12" cx="862.37" cy="792.5" r="4.5"/>

    <circle class="cls-12" cx="918" cy="909.5" r="4.5"/>

    <circle class="cls-12" cx="950" cy="782.5" r="4.5"/>

    <circle class="cls-12" cx="950" cy="729.5" r="4.5"/>

    <circle class="cls-12" cx="1065.25" cy="761.5" r="4.5"/>

    <circle class="cls-12" cx="1065.25" cy="684.5" r="4.5"/>

    <circle class="cls-12" cx="1130" cy="955.5" r="4.5"/>

    <circle class="cls-12" cx="1065" cy="1002" r="4.5"/>

    <circle class="cls-12" cx="1065.25" cy="904.5" r="4.5"/>

    <circle class="cls-12" cx="1134" cy="845.85" r="4.5"/>

    <circle class="cls-12" cx="1197" cy="845.85" r="4.5"/>

    <circle class="cls-12" cx="950" cy="955.5" r="4.5"/>

    <circle class="cls-12" cx="785" cy="812.5" r="4.5"/>

    <circle class="cls-12" cx="723" cy="873.5" r="4.5"/>

    <circle class="cls-12" cx="711" cy="935.5" r="4.5"/>

    <circle class="cls-12" cx="711" cy="986.5" r="4.5"/>

    <circle class="cls-12" cx="711" cy="1011.5" r="4.5"/>

    <circle class="cls-12" cx="662" cy="1037.5" r="4.5"/>

    <circle class="cls-12" cx="584" cy="1037.5" r="4.5"/>

    <circle class="cls-12" cx="549" cy="1048.5" r="4.5"/>

    <circle class="cls-12" cx="526" cy="1071" r="4.5"/>

    <circle class="cls-12" cx="503" cy="1094" r="4.5"/>

    <circle class="cls-12" cx="479" cy="1118" r="4.5"/>

    <circle class="cls-12" cx="451" cy="1146" r="4.5"/>

    <circle class="cls-12" cx="711" cy="962.5" r="4.5"/>

    <circle class="cls-12" cx="572" cy="719.5" r="4.5"/>

    <circle class="cls-12" cx="453" cy="734.5" r="4.5"/>

    <circle class="cls-12" cx="463.5" cy="781" r="4.5"/>

    <circle class="cls-12" cx="642" cy="845.85" r="4.5"/>

    <circle class="cls-12" cx="806" cy="845.85" r="4.5"/>

    <circle class="cls-12" cx="358" cy="755.5" r="4.5"/>

    <circle class="cls-12" cx="358" cy="786.5" r="4.5"/>

    <circle class="cls-12" cx="358" cy="821.5" r="4.5"/>

    <circle class="cls-12" cx="128" cy="733.5" r="4.5"/>

    <circle class="cls-12" cx="128" cy="781.5" r="4.5"/>

    <circle class="cls-12" cx="128" cy="829.5" r="4.5"/>

    <circle class="cls-12" cx="128" cy="877.5" r="4.5"/>

    <circle class="cls-12" cx="323" cy="859.5" r="4.5"/>

    <circle class="cls-12" cx="305.14" cy="784.83" r="4.5"/>

    <circle class="cls-12" cx="305.14" cy="745.17" r="4.5"/>

    <circle class="cls-12" cx="305" cy="824.5" r="4.5"/>

    <circle class="cls-12" cx="322" cy="906.5" r="4.5"/>

    <circle class="cls-12" cx="262" cy="906.5" r="4.5"/>

    <circle class="cls-12" cx="198" cy="906.5" r="4.5"/>

    <circle class="cls-12" cx="405" cy="859.5" r="4.5"/>

    <circle class="cls-12" cx="574" cy="909.5" r="4.5"/>

    <circle class="cls-12" cx="597" cy="973.5" r="4.5"/>

    <circle class="cls-12" cx="611" cy="909.5" r="4.5"/>

    <circle class="cls-12" cx="763" cy="909.5" r="4.5"/>
</g>
  <g id="text">
    <text class="cls-13" transform="translate(544.33 602.5)">鼓楼</text>
    <text class="cls-13" transform="translate(559.33 636.5)">东门口</text>
    <text class="cls-13" transform="translate(560.33 507.5)">外滩大桥</text>
    <text class="cls-13" transform="translate(626.33 450.5)">倪家堰</text>
    <text class="cls-13" transform="translate(648.33 493.5)">正大路</text>
    <text class="cls-13" transform="translate(676.33 404.5)">压赛堰</text>
    <text class="cls-13" transform="translate(698.33 350.5)">大通桥</text>
    <text class="cls-13" transform="translate(569.33 250.5)">客运北站</text>
    <text class="cls-13" transform="translate(589.33 217.5)">团桥</text>
    <text class="cls-13" transform="translate(589.33 182.5)">骆兴</text>
    <text class="cls-13" transform="translate(564.33 158.5)">骆驼北</text>
    <text class="cls-13" transform="translate(527.33 131.5)">慈海北路</text>
    <text class="cls-13" transform="translate(507.83 101)">汶骆路</text>
    <text class="cls-13" transform="translate(477.33 69.5)">澥浦</text>
    <text class="cls-13" transform="translate(445.33 42.5)">澥浦北</text>
    <text class="cls-13" transform="translate(253.33 56.5)">九龙湖北</text>
    <text class="cls-13" transform="translate(288.33 83.5)">九龙湖</text>
    <text class="cls-13" transform="translate(310.33 115.5)">九龙湖南</text>
    <text class="cls-13" transform="translate(338.33 142.5)">九龙大道</text>
    <text class="cls-13" transform="translate(369.33 165.5)">绕城路</text>
    <text class="cls-13" transform="translate(389.33 194.5)">镇新西路</text>
    <text class="cls-13" transform="translate(423.33 230.5)">城西路</text>
    <text class="cls-13" transform="translate(423.33 260.5)">宁慈路</text>
    <text class="cls-13" transform="translate(761.33 366.5)">孔浦</text>
    <text class="cls-13" transform="translate(794.33 336.5)">路林</text>
    <text class="cls-13" transform="translate(839.33 288.5)">三官堂</text>
    <text class="cls-13" transform="translate(871.33 260.5)">宁波大学</text>
    <text class="cls-13" transform="translate(916.33 211.5)">清水浦</text>
    <text class="cls-13" transform="translate(962.33 209.5)">五里牌</text>
    <text class="cls-13" transform="translate(1029.33 209.5)">枫园</text>
    <text class="cls-13" transform="translate(1084.33 209.5)">聪园路</text>
    <text class="cls-13" transform="translate(1141.33 209.5)">招宝山</text>
    <text class="cls-13" transform="translate(1253.33 281.5)">红联</text>
    <text class="cls-13" transform="translate(1225.33 309.5)">衙门路</text>
    <text class="cls-13" transform="translate(501.33 450.5)">大闸南路</text>
    <text class="cls-13" transform="translate(546.33 659.5)">城隍庙</text>
    <text class="cls-13" transform="translate(467.33 655.5)">柳西</text>
    <text class="cls-13" transform="translate(552.33 706.5)">兴宁桥西</text>
    <text class="cls-13" transform="translate(599.33 739.5)">兴宁桥东</text>
    <text class="cls-13" transform="translate(695.33 739.5)">白鹤</text>
    <text class="cls-13" transform="translate(740.33 739.5)">儿童公园</text>
    <text class="cls-13" transform="translate(806.33 771.5)">仇毕</text>
    <text class="cls-13" transform="translate(871.83 746.5)">矮柳</text>
    <text class="cls-13" transform="translate(871.83 867.5)">嵩江东路</text>
    <text class="cls-13" transform="translate(871.83 796.5)">潘火路</text>
    <text class="cls-13" transform="translate(803.33 927.5)">南高教园区</text>
    <text class="cls-13" transform="translate(1021.33 976.5)">小洋江</text>
    <text class="cls-13" transform="translate(1078.33 867.5)">盛莫南路</text>
    <text class="cls-13" transform="translate(932.33 976.5)">金达南路</text>
    <text class="cls-13" transform="translate(1115.33 976.5)">东钱湖</text>
    <text class="cls-13" transform="translate(1078.08 1006)">云龙</text>
    <text class="cls-13" transform="translate(1078.33 908.5)">东钱湖北</text>
    <text class="cls-13" transform="translate(1116.33 831.5)">诚信东路</text>
    <text class="cls-13" transform="translate(1179.33 831.5)">东钱湖东</text>
    <text class="cls-13" transform="translate(1078.83 1045)">横溪</text>
    <text class="cls-13" transform="translate(650.33 895.5)">鄞州区政府</text>
    <text class="cls-13" transform="translate(650.33 939.5)">南部商务区</text>
    <text class="cls-13" transform="translate(640.33 966.5)">鄞州客运总站</text>
    <text class="cls-13" transform="translate(670.33 990.5)">勾章路</text>
    <text class="cls-13" transform="translate(670.33 1015.5)">高塘桥</text>
    <text class="cls-13" transform="translate(653.33 1060.5)">狮山</text>
    <text class="cls-13" transform="translate(596.33 1023.5)">和益</text>
    <text class="cls-13" transform="translate(556.33 977.5)">锡山路</text>
    <text class="cls-13" transform="translate(573.33 1060.5)">朝阳</text>
    <text class="cls-13" transform="translate(514.33 1050.5)">方桥</text>
    <text class="cls-13" transform="translate(493.33 1074)">琎琳</text>
    <text class="cls-13" transform="translate(467.33 1096.5)">南渡</text>
    <text class="cls-13" transform="translate(423.33 1119.5)">大成东路</text>
    <text class="cls-13" transform="translate(409.33 1148)">金海路</text>
    <text class="cls-13" transform="translate(726.33 1043.5)">姜山</text>
    <text class="cls-13" transform="translate(736.33 877.5)">四明中路</text>
    <text class="cls-13" transform="translate(743 927.5)">钱湖南路</text>
    <text class="cls-13" transform="translate(708.33 831.5)">锦寓路</text>
    <text class="cls-13" transform="translate(791.33 867.5)">嵩江路</text>
    <text class="cls-13" transform="translate(898.33 927.5)">下应北路</text>
    <text class="cls-13" transform="translate(911.33 831.5)">大洋江</text>
    <text class="cls-13" transform="translate(967.33 867.5)">启明路</text>
    <text class="cls-13" transform="translate(960.01 786.5)">泗港</text>
    <text class="cls-13" transform="translate(960.01 733.5)">曹隘</text>
    <text class="cls-13" transform="translate(1078.33 765.5)">富强东路</text>
    <text class="cls-13" transform="translate(1078.33 688.5)">百丈东路</text>
    <text class="cls-13" transform="translate(960.33 687.5)">柳隘</text>
    <text class="cls-13" transform="translate(797.33 816.5)">钱湖北路</text>
    <text class="cls-13" transform="translate(480.33 636.5)">西门口</text>
    <text class="cls-13" transform="translate(473.33 534.5)">翠柏里</text>
    <text class="cls-13" transform="translate(416.33 479.5)">双东路</text>
    <text class="cls-13" transform="translate(337.33 514.5)">五江口</text>
    <text class="cls-13" transform="translate(480.33 345.5)">丽江路</text>
    <text class="cls-13" transform="translate(388.33 309.5)">庄桥火车站</text>
    <text class="cls-13" transform="translate(333.33 309.5)">洪大路</text>
    <text class="cls-13" transform="translate(261.33 309.5)">洪塘中路</text>
    <text class="cls-13" transform="translate(228.83 228.5)">江北大道</text>
    <text class="cls-13" transform="translate(228.83 374.5)">邵渡桥</text>
    <text class="cls-13" transform="translate(228.83 470.5)">菱漕路</text>
    <text class="cls-13" transform="translate(114.33 374.5)">金山南路</text>
    <text class="cls-13" transform="translate(117.33 291.5)">金山路</text>
    <text class="cls-13" transform="translate(78.33 249.5)">长兴路</text>
    <text class="cls-13" transform="translate(51.33 219.5)">官山河</text>
    <text class="cls-13" transform="translate(27.33 190.5)">慈城</text>
    <text class="cls-13" transform="translate(228.83 276.5)">奥体中心</text>
    <text class="cls-13" transform="translate(492.33 739.5)">宁波火车站</text>
    <text class="cls-13" transform="translate(468.33 602.5)">大卿桥</text>
    <text class="cls-13" transform="translate(421.33 636.5)">泽民</text>
    <text class="cls-13" transform="translate(356.33 575.5)">范江岸路</text>
    <text class="cls-13" transform="translate(370.33 636.5)">望春桥</text>
    <text class="cls-13" transform="translate(314.33 602.5)">徐家漕长乐</text>
    <text class="cls-13" transform="translate(240.33 514.5)">范江岸西路</text>
    <text class="cls-13" transform="translate(320.33 360.5)">洪大路</text>
    <text class="cls-13" transform="translate(381 360.5)">云飞路</text>
    <text class="cls-13" transform="translate(271.33 636.5)">芦港</text>
    <text class="cls-13" transform="translate(263.33 672.5)">望童路</text>
    <text class="cls-13" transform="translate(197.33 673.5)">高桥南</text>
    <text class="cls-13" transform="translate(87.33 685.5)">汇士路</text>
    <text class="cls-13" transform="translate(174.33 636.5)">高桥</text>
    <text class="cls-13" transform="translate(117.33 636.5)">高桥西</text>
    <text class="cls-13" transform="translate(250.33 602.5)">梁祝</text>
    <text class="cls-13" transform="translate(361.33 724.5)">丽园南路</text>
    <text class="cls-13" transform="translate(364.33 659.5)">丽园北路</text>
    <text class="cls-13" transform="translate(476.33 782.5)">新典路</text>
    <text class="cls-13" transform="translate(516.33 867.5)">广德湖北路</text>
    <text class="cls-13" transform="translate(621.33 867.5)">嵩江西路</text>
    <text class="cls-13" transform="translate(437.33 725.5)">云霞路</text>
    <text class="cls-13" transform="translate(475.33 687.5)">南站西路</text>
    <text class="cls-13" transform="translate(369.33 759.5)">客运中心</text>
    <text class="cls-13" transform="translate(369.33 790.5)">藕池</text>
    <text class="cls-13" transform="translate(369.33 825.5)">轻纺城</text>
    <text class="cls-13" transform="translate(88.33 737.5)">春华路</text>
    <text class="cls-13" transform="translate(78.33 785.5)">云林西路</text>
    <text class="cls-13" transform="translate(98.33 833.5)">古林</text>
    <text class="cls-13" transform="translate(88.33 881.5)">黄古路</text>
    <text class="cls-13" transform="translate(330.33 847.5)">石碶</text>
    <text class="cls-13" transform="translate(307.33 881.5)">同德路</text>
    <text class="cls-13" transform="translate(263.33 828.5)">张家潭</text>
    <text class="cls-13" transform="translate(273.33 788.5)">布政</text>
    <text class="cls-13" transform="translate(253.33 749.5)">环城南路</text>
    <text class="cls-13" transform="translate(263.33 712.5)">联丰路</text>
    <text class="cls-13" transform="translate(303.33 927.5)">鄞州大道</text>
    <text class="cls-13" transform="translate(253.33 927.5)">栎社</text>
    <text class="cls-13" transform="translate(169.33 927.5)">栎社国际机场</text>
    <text class="cls-13" transform="translate(654.33 636.5)">江厦桥东</text>
    <text class="cls-13" transform="translate(654.33 687.5)">七塔寺</text>
    <text class="cls-13" transform="translate(716.33 636.5)">舟孟北路</text>
    <text class="cls-13" transform="translate(747.33 602.75)">樱花公园</text>
    <text class="cls-13" transform="translate(758.33 572.5)">体育馆</text>
    <text class="cls-13" transform="translate(690.33 572.5)">惊驾路</text>
    <text class="cls-13" transform="translate(805.33 523.5)">明楼</text>
    <text class="cls-13" transform="translate(734.33 460.5)">中兴大桥</text>
    <text class="cls-13" transform="translate(743.33 523.5)">江南</text>
    <text class="cls-13" transform="translate(827.33 636.5)">福明路</text>
    <text class="cls-13" transform="translate(827.33 687.5)">中兴路</text>
    <text class="cls-13" transform="translate(822.33 572.5)">福民公园</text>
    <text class="cls-13" transform="translate(890.33 572.5)">新天路</text>
    <text class="cls-13" transform="translate(873.33 636.5)">世纪大道</text>
    <text class="cls-14" transform="translate(960.33 602.5)">海晏北路</text>
    <text class="cls-13" transform="translate(960.33 537.5)">民安东路</text>
    <text class="cls-13" transform="translate(960.01 486.5)">会展中心</text>
    <text class="cls-13" transform="translate(908.33 362.5)">盎孟港路</text>
    <text class="cls-13" transform="translate(762.33 272.5)">兴庄路</text>
    <text class="cls-13" transform="translate(685.33 272.5)">兴海南路</text>
    <text class="cls-13" transform="translate(625.33 126.5)">镇兴东路</text>
    <text class="cls-13" transform="translate(663.33 306.5)">华业街</text>
    <text class="cls-13" transform="translate(547.33 306.5)">人民北路</text>
    <text class="cls-13" transform="translate(630.33 272.5)">外漕村</text>
    <text class="cls-13" transform="translate(903.33 418.5)">院士路</text>
    <text class="cls-13" transform="translate(989.33 436.5)">聚贤路</text>
    <text class="cls-13" transform="translate(870.33 454.5)">明珠路</text>
    <text class="cls-13" transform="translate(839.33 486.5)">沧海路</text>
    <text class="cls-13" transform="translate(1054.33 436.5)">剑兰路</text>
    <text class="cls-13" transform="translate(1146.33 386.5)">梅墟路</text>
    <text class="cls-13" transform="translate(1184.33 348.5)">经十二路</text>
    <text class="cls-13" transform="translate(981.33 636.5)">福庆北路</text>
    <text class="cls-13" transform="translate(1105.33 636.5)">东环南路</text>
    <text class="cls-13" transform="translate(1187.33 636.5)">邱隘东</text>
    <text class="cls-13" transform="translate(1264.33 636.5)">五乡</text>
    <text class="cls-13" transform="translate(1283.33 562.5)">宝幢</text>
    <text class="cls-13" transform="translate(1286.33 498.5)">邬隘</text>
    <text class="cls-13" transform="translate(1286.33 433.5)">大碶</text>
    <text class="cls-13" transform="translate(1266.33 369.5)">松花江路</text>
    <text class="cls-13" transform="translate(1344.33 349.5)">中河路</text>
    <text class="cls-13" transform="translate(1278.33 246.5)">长山村</text>
    <text class="cls-13" transform="translate(1311.33 281.5)">富春江路</text>
    <text class="cls-13" transform="translate(1394.33 281.5)">太河路</text>
    <text class="cls-13" transform="translate(1355.33 246.5)">大港站</text>
    <text class="cls-13" transform="translate(1433.33 246.5)">恒山路</text>
    <text class="cls-13" transform="translate(1392.33 349.5)">长江路</text>
    <text class="cls-13" transform="translate(1446.33 349.5)">霞浦</text>
    <text class="cls-13" transform="translate(1060.33 602.75)">盛莫路</text>
    <text class="cls-13" transform="translate(392.33 881.5)">雅渡</text>
    <text class="cls-13" transform="translate(543.33 927.5)">庙堰</text>
    <text class="cls-13" transform="translate(596.33 895.5)">钟公庙</text>
  </g>
</svg>
